<?xml version="1.0" encoding="UTF-8"?>
<svg width="249px" height="64px" viewBox="0 0 249 64" version="1.1" xmlns="http://www.w3.org/2000/svg">
    <!-- Generator: Sketch 63.1 (92452) - https://sketch.com -->
    <title>编组备份</title>
    <desc>Created with Sketch.</desc>
    <g id="编组备份" stroke="none" stroke-width="1" fill="none" fill-rule="evenodd">
        <path d="M5.664,50 L8.688,39.92 L20.976,39.92 L23.952,50 L29.856,50 L18.144,14.624 L11.712,14.624 L0,50 L5.664,50 Z M19.632,35.552 L9.984,35.552 L11.424,30.8 C12.576,26.96 13.68,23.072 14.688,19.04 L14.928,19.04 C15.984,23.024 17.04,26.96 18.24,30.8 L19.632,35.552 Z M45.1438498,50.624 C48.1678498,50.624 51.2878498,49.52 53.7358498,47.36 L51.4318498,43.712 C49.8478498,45.056 47.8798498,46.112 45.6718498,46.112 C41.3038498,46.112 38.2318498,42.416 38.2318498,36.8 C38.2318498,31.232 41.3998498,27.488 45.8638498,27.488 C47.6398498,27.488 49.1278498,28.256 50.5678498,29.552 L53.3038498,25.952 C51.3838498,24.272 48.9358498,22.928 45.5758498,22.928 C38.6158498,22.928 32.5198498,28.016 32.5198498,36.8 C32.5198498,45.584 37.9918498,50.624 45.1438498,50.624 Z M65.0876997,50 L65.0876997,31.28 C67.3916997,28.928 69.0716997,27.68 71.5196997,27.68 C74.6396997,27.68 75.9836997,29.504 75.9836997,34.064 L75.9836997,50 L81.5036997,50 L81.5036997,33.392 C81.5036997,26.672 79.0076997,22.928 73.3916997,22.928 C69.7916997,22.928 67.1516997,24.896 64.8476997,27.104 L65.0876997,21.872 L65.0876997,11.744 L59.5676997,11.744 L59.5676997,50 L65.0876997,50 Z M92.4715495,18.656 C94.4875495,18.656 95.9275495,17.36 95.9275495,15.344 C95.9275495,13.376 94.4875495,12.08 92.4715495,12.08 C90.4555495,12.08 89.0635495,13.376 89.0635495,15.344 C89.0635495,17.36 90.4555495,18.656 92.4715495,18.656 Z M95.2555495,50 L95.2555495,23.6 L89.7355495,23.6 L89.7355495,50 L95.2555495,50 Z M114.863399,50.624 C118.319399,50.624 121.343399,49.472 123.791399,47.84 L121.871399,44.336 C119.951399,45.584 117.935399,46.304 115.583399,46.304 C111.023399,46.304 107.855399,43.28 107.423399,38.24 L124.559399,38.24 C124.703399,37.568 124.847399,36.512 124.847399,35.408 C124.847399,27.968 121.055399,22.928 114.047399,22.928 C107.903399,22.928 101.999399,28.256 101.999399,36.8 C101.999399,45.536 107.711399,50.624 114.863399,50.624 Z M120.047399,34.4 L107.375399,34.4 C107.903399,29.792 110.831399,27.248 114.143399,27.248 C117.983399,27.248 120.047399,29.888 120.047399,34.4 Z M143.543249,50 L152.663249,23.6 L147.287249,23.6 L142.775249,37.808 C142.055249,40.4 141.239249,43.088 140.471249,45.68 L140.279249,45.68 C139.511249,43.088 138.743249,40.4 137.975249,37.808 L133.463249,23.6 L127.799249,23.6 L137.159249,50 L143.543249,50 Z M168.575099,50.624 C172.031099,50.624 175.055099,49.472 177.503099,47.84 L175.583099,44.336 C173.663099,45.584 171.647099,46.304 169.295099,46.304 C164.735099,46.304 161.567099,43.28 161.135099,38.24 L178.271099,38.24 C178.415099,37.568 178.559099,36.512 178.559099,35.408 C178.559099,27.968 174.767099,22.928 167.759099,22.928 C161.615099,22.928 155.711099,28.256 155.711099,36.8 C155.711099,45.536 161.423099,50.624 168.575099,50.624 Z M173.759099,34.4 L161.087099,34.4 C161.615099,29.792 164.543099,27.248 167.855099,27.248 C171.695099,27.248 173.759099,29.888 173.759099,34.4 Z" id="Achieve" fill="#FFFFFF" fill-rule="nonzero"></path>
        <rect id="矩形" fill="#409EFF" x="189" y="2" width="60" height="60" rx="3"></rect>
        <path d="M211.224,50 L211.224,14.624 L205.656,14.624 L205.656,50 L211.224,50 Z M229.24785,50.624 C231.16785,50.624 232.94385,50.144 234.43185,49.664 L233.42385,45.584 C232.65585,45.92 231.50385,46.208 230.59185,46.208 C227.85585,46.208 226.75185,44.576 226.75185,41.408 L226.75185,28.016 L233.61585,28.016 L233.61585,23.6 L226.75185,23.6 L226.75185,16.304 L222.14385,16.304 L221.51985,23.6 L217.39185,23.888 L217.39185,28.016 L221.23185,28.016 L221.23185,41.36 C221.23185,46.928 223.29585,50.624 229.24785,50.624 Z" id="It" fill="#FFFFFF" fill-rule="nonzero"></path>
    </g>
</svg>
